HIERARCHY
ROOT Hips
{
	OFFSET 0.000000 0.000000 0.000000
	CHANNELS 6 Xposition Yposition Zposition Xrotation Yrotation Zrotation
	JOINT LeftUpLeg_virtual
	{
		OFFSET 0.000000 0.000000 0.000000
		CHANNELS 3 Xrotation Yrotation Zrotation
		JOINT LeftUpLeg
		{
			OFFSET 13.026900 -6.336304 -1.092800
			CHANNELS 3 Xrotation Yrotation Zrotation
			JOINT LeftLeg
			{
				OFFSET 0.524474 -46.096886 9.782700
				CHANNELS 3 Xrotation Yrotation Zrotation
				JOINT LeftFoot
				{
					OFFSET -0.524474 -53.427422 -12.948200
					CHANNELS 3 Xrotation Yrotation Zrotation
					JOINT LeftToeBase
					{
						OFFSET 0.192200 -14.009700 16.364100
						CHANNELS 3 Xrotation Yrotation Zrotation
						JOINT LeftToe_End
						{
							OFFSET -1.784700 -0.561700 9.474800
							CHANNELS 3 Xrotation Yrotation Zrotation
							End Site
							{
								OFFSET 0 0 0
							}
						}
					}
				}
			}
		}
	}
	JOINT RightUpLeg_virtual
	{
		OFFSET 0.000000 0.000000 0.000000
		CHANNELS 3 Xrotation Yrotation Zrotation
		JOINT RightUpLeg
		{
			OFFSET -12.883000 -6.336304 -1.092800
			CHANNELS 3 Xrotation Yrotation Zrotation
			JOINT RightLeg
			{
				OFFSET -0.524587 -46.096825 9.782800
				CHANNELS 3 Xrotation Yrotation Zrotation
				JOINT RightFoot
				{
					OFFSET 0.524587 -53.427383 -12.948300
					CHANNELS 3 Xrotation Yrotation Zrotation
					JOINT RightToeBase
					{
						OFFSET -0.192200 -14.009700 16.364100
						CHANNELS 3 Xrotation Yrotation Zrotation
						JOINT RightToe_End
						{
							OFFSET 1.784700 -0.561700 9.474800
							CHANNELS 3 Xrotation Yrotation Zrotation
							End Site
							{
								OFFSET 0 0 0
							}
						}
					}
				}
			}
		}
	}
	JOINT Spine_virtual
	{
		OFFSET 0.000000 0.000000 0.000000
		CHANNELS 3 Xrotation Yrotation Zrotation
		JOINT Spine
		{
			OFFSET 0.072000 7.257294 -0.789700
			CHANNELS 3 Xrotation Yrotation Zrotation
			JOINT Spine1
			{
				OFFSET 0.000000 12.508769 -0.658067
				CHANNELS 3 Xrotation Yrotation Zrotation
				JOINT Spine1_split
				{
					OFFSET 0.000000 12.508769 -0.658067
					CHANNELS 3 Xrotation Yrotation Zrotation
					JOINT Spine2
					{
						OFFSET 0.000000 12.508769 -0.658067
						CHANNELS 3 Xrotation Yrotation Zrotation
						JOINT Neck_virtual
						{
							OFFSET 0.000000 0.000000 0.000000
							CHANNELS 3 Xrotation Yrotation Zrotation
							JOINT Neck
							{
								OFFSET 0.000000 14.033295 7.520400
								CHANNELS 3 Xrotation Yrotation Zrotation
								JOINT Head
								{
									OFFSET 0.000000 8.198502 5.703100
									CHANNELS 3 Xrotation Yrotation Zrotation
									JOINT HeadTop_End
									{
										OFFSET 0.000000 17.760803 13.332701
										CHANNELS 3 Xrotation Yrotation Zrotation
										End Site
										{
											OFFSET 0 0 0
										}
									}
								}
							}
						}
						JOINT LeftShoulder_virtual
						{
							OFFSET 0.000000 0.000000 0.000000
							CHANNELS 3 Xrotation Yrotation Zrotation
							JOINT LeftShoulder
							{
								OFFSET 6.292450 5.785301 -0.669000
								CHANNELS 3 Xrotation Yrotation Zrotation
								JOINT LeftShoulder_split
								{
									OFFSET 6.292450 5.785301 -0.669000
									CHANNELS 3 Xrotation Yrotation Zrotation
									JOINT LeftArm
									{
										OFFSET 13.907140 -6.093903 1.965100
										CHANNELS 3 Xrotation Yrotation Zrotation
										JOINT LeftForeArm
										{
											OFFSET 34.140198 0.000000 0.000000
											CHANNELS 3 Xrotation Yrotation Zrotation
											JOINT LeftHand
											{
												OFFSET 40.960209 0.000000 0.000000
												CHANNELS 3 Xrotation Yrotation Zrotation
												End Site
												{
													OFFSET 0 0 0
												}
											}
										}
									}
								}
							}
						}
						JOINT RightShoulder_virtual
						{
							OFFSET 0.000000 0.000000 0.000000
							CHANNELS 3 Xrotation Yrotation Zrotation
							JOINT RightShoulder
							{
								OFFSET -6.292450 5.785301 -0.669000
								CHANNELS 3 Xrotation Yrotation Zrotation
								JOINT RightShoulder_split
								{
									OFFSET -6.292450 5.785301 -0.669000
									CHANNELS 3 Xrotation Yrotation Zrotation
									JOINT RightArm
									{
										OFFSET -13.907140 -6.093903 1.965100
										CHANNELS 3 Xrotation Yrotation Zrotation
										JOINT RightForeArm
										{
											OFFSET -34.140198 0.000000 0.000000
											CHANNELS 3 Xrotation Yrotation Zrotation
											JOINT RightHand
											{
												OFFSET -40.960209 0.000000 0.000000
												CHANNELS 3 Xrotation Yrotation Zrotation
												End Site
												{
													OFFSET 0 0 0
												}
											}
										}
									}
								}
							}
						}
					}
				}
			}
		}
	}
}
MOTION
Frames: 11
Frame Time: 0.03333333
2.136121 119.994881 -0.966930 0.000000 0.000000 0.000000 2.699866 -31.682082 1.005003 -16.375315 16.127588 13.274546 14.430498 12.580911 -1.333768 -2.352160 -3.506442 -5.382759 2.207650 -0.151494 -0.868967 0.000000 0.000000 0.000000 4.104618 -31.284046 1.151314 -12.002666 1.381473 -5.423639 7.302147 6.908578 -2.136665 1.924458 -0.106614 3.151916 -5.434423 -0.127958 -0.782284 0.000000 0.000000 0.000000 3.677034 -29.705340 0.725787 8.823562 1.696385 -0.155527 0.811995 -0.803799 2.084980 0.081075 -0.592123 1.012621 0.000000 0.000000 0.000000 1.918385 -0.243005 2.226188 -4.694807 21.139813 -6.183620 -6.132780 13.363987 0.063399 0.000000 0.000000 0.000000 1.523018 -0.621553 2.666773 0.838349 -10.779897 -1.157440 2.329390 -0.270268 1.082010 -59.891750 0.347094 -37.264020 7.167003 -59.975481 9.390277 0.000000 0.000000 0.000000 0.484398 -0.605205 2.817444 4.083362 7.701070 6.999177 -2.563242 -3.209346 -1.822172 -1.544627 2.913199 65.657304 13.032558 24.587653 -4.280561 0.000000 0.000000 0.000000 
2.181124 119.764359 -1.216877 0.000000 0.000000 0.000000 2.713080 -32.143048 1.298576 -16.389515 16.461260 13.144509 14.470492 12.402877 -1.269022 -2.476571 -3.830747 -5.358739 1.932407 -0.124139 -0.881162 0.000000 0.000000 0.000000 4.131257 -31.563626 1.379839 -12.079600 0.833689 -5.706175 7.481392 6.792919 -2.084998 2.076488 -0.006792 3.517630 -6.117304 -0.222095 -0.678484 0.000000 0.000000 0.000000 3.532296 -29.752058 0.755201 8.847361 1.656174 -0.287524 0.754764 -0.839558 2.132281 0.209097 -0.808444 1.220570 0.000000 0.000000 0.000000 1.939936 -0.286293 2.307875 -4.339641 21.593809 -6.233925 -6.104576 13.814937 -0.141639 0.000000 0.000000 0.000000 1.379841 -0.648169 2.691705 0.802318 -10.161576 -1.385721 2.282441 -0.508018 1.132507 -59.759244 0.584497 -36.925283 7.125501 -60.058366 9.195399 0.000000 0.000000 0.000000 0.422349 -0.654474 2.893399 3.970625 7.719762 7.333768 -2.548495 -3.607093 -1.761953 -0.841473 2.932712 65.184928 13.111396 24.398085 -4.310868 0.000000 0.000000 0.000000 
2.289029 119.411003 -1.536961 0.000000 0.000000 0.000000 2.982338 -32.108975 1.657382 -16.542459 16.546294 12.939651 14.686551 12.086204 -1.165631 -2.432174 -4.508960 -5.371845 1.754112 -0.076516 -0.871276 0.000000 0.000000 0.000000 4.150781 -31.512649 1.726901 -12.152822 0.181902 -6.209294 8.203585 6.558137 -2.037045 1.443060 0.148657 4.056689 -5.914432 -0.326238 -0.600974 0.000000 0.000000 0.000000 3.515094 -29.584445 0.884895 8.700365 1.558611 -0.545802 0.694186 -0.841398 2.216528 0.414129 -1.032656 1.293919 0.000000 0.000000 0.000000 1.870672 -0.296745 2.438810 -4.116206 22.657653 -6.221809 -5.915153 15.365470 -0.523142 0.000000 0.000000 0.000000 1.265937 -0.641999 2.733850 0.774303 -9.015564 -1.505953 2.301852 -0.745736 1.147799 -59.494103 1.322814 -36.221292 6.627770 -60.383995 8.581565 0.000000 0.000000 0.000000 0.400873 -0.657782 2.991917 3.895292 7.804511 7.740629 -2.536810 -3.590593 -1.706132 0.123903 2.714782 64.529039 13.194476 24.353238 -4.317529 0.000000 0.000000 0.000000 
2.416427 119.043800 -1.749847 0.000000 0.000000 0.000000 3.444497 -31.559907 1.977607 -16.856876 16.403726 12.748636 14.868234 11.800531 -1.053597 -2.304380 -5.399693 -5.351055 1.808958 -0.009323 -0.864865 0.000000 0.000000 0.000000 4.283555 -31.012167 2.065418 -12.218106 -0.383595 -6.789644 9.123801 6.226459 -1.988352 0.204719 0.438774 4.963716 -5.040326 -0.399853 -0.684550 0.000000 0.000000 0.000000 3.630263 -29.200643 1.025630 8.435309 1.444894 -0.826711 0.628888 -0.773678 2.300609 0.360154 -1.173999 1.207093 0.000000 0.000000 0.000000 1.691110 -0.244945 2.569068 -4.034810 24.234672 -6.217540 -5.594592 17.777637 -1.062313 0.000000 0.000000 0.000000 1.210899 -0.574665 2.757174 0.756924 -7.448157 -1.514796 2.377200 -0.834354 1.268694 -59.086512 2.528312 -35.105537 5.726471 -60.806872 7.622984 0.000000 0.000000 0.000000 0.414918 -0.577370 3.066782 3.851369 7.977002 8.133937 -2.399108 -3.147983 -1.694341 1.103381 2.363259 63.867398 13.281153 24.422446 -4.294305 0.000000 0.000000 0.000000 
2.563391 118.698082 -1.825558 0.000000 0.000000 0.000000 4.003584 -30.630666 2.170614 -17.435595 16.064999 12.590325 15.012524 11.587882 -0.937927 -2.157906 -6.351944 -5.282023 2.067392 0.071736 -0.873152 0.000000 0.000000 0.000000 4.580182 -30.164226 2.285353 -12.303974 -0.816950 -7.285899 10.063830 5.866091 -1.979414 -1.269760 0.823689 6.612454 -4.492690 -0.415972 -1.012385 0.000000 0.000000 0.000000 3.896909 -28.670788 1.145241 8.059479 1.381404 -1.017048 0.564742 -0.618204 2.345000 0.301640 -1.270703 1.068464 0.000000 0.000000 0.000000 1.445330 -0.099375 2.637309 -4.032224 26.248171 -6.302965 -5.226410 20.783955 -1.739417 0.000000 0.000000 0.000000 1.217873 -0.407852 2.728252 0.749018 -5.607663 -1.440499 2.456794 -0.814547 1.438921 -58.531368 4.113801 -33.638016 4.676651 -61.240152 6.537380 0.000000 0.000000 0.000000 0.468792 -0.384694 3.068731 3.816910 8.195794 8.468384 -2.180864 -2.459027 -1.773927 1.904908 1.971462 63.316680 13.352901 24.501803 -4.245186 0.000000 0.000000 0.000000 
2.738619 118.373367 -1.643799 0.000000 0.000000 0.000000 4.463449 -29.429724 2.170153 -18.168011 15.686979 12.454491 15.310123 11.435814 -0.861654 -2.028147 -7.260574 -5.161594 2.337251 0.153060 -0.877504 0.000000 0.000000 0.000000 4.904241 -28.962321 2.302907 -12.437468 -1.133270 -7.555349 10.930995 5.485359 -2.076565 -2.826097 1.143531 8.812017 -4.716375 -0.371229 -1.514603 0.000000 0.000000 0.000000 4.172429 -27.938050 1.177156 7.632496 1.411064 -1.048145 0.518113 -0.354618 2.316074 0.348347 -1.257432 0.975624 0.000000 0.000000 0.000000 1.191288 0.161354 2.609037 -4.019470 28.551359 -6.557530 -4.890226 24.070835 -2.537722 0.000000 0.000000 0.000000 1.285349 -0.121979 2.625612 0.750260 -3.650526 -1.362387 2.504409 -0.957553 1.452048 -57.910722 5.843965 -31.988942 3.738148 -61.768679 5.565464 0.000000 0.000000 0.000000 0.556629 -0.069086 2.968919 3.769023 8.427915 8.726790 -1.905033 -1.880830 -1.859106 2.437385 1.527484 62.939947 13.372903 24.314241 -4.167971 0.000000 0.000000 0.000000 
2.970799 118.014542 -1.255943 0.000000 0.000000 0.000000 4.723935 -28.079531 2.051618 -18.984941 15.418952 12.287223 16.107420 11.428720 -0.874506 -1.910137 -8.055184 -4.847821 2.463798 0.221638 -0.860540 0.000000 0.000000 0.000000 5.203671 -27.431747 2.148872 -12.731589 -1.443880 -7.617064 12.250477 4.953769 -2.304409 -4.373564 1.112518 10.652198 -5.350176 -0.288758 -1.933726 0.000000 0.000000 0.000000 4.400664 -27.014590 1.161420 7.213862 1.547029 -0.889248 0.490299 0.010940 2.209542 0.449667 -1.005842 0.968193 0.000000 0.000000 0.000000 0.991171 0.525579 2.472984 -3.866486 31.019605 -7.020139 -4.639409 27.402099 -3.404449 0.000000 0.000000 0.000000 1.376322 0.275879 2.447904 0.753322 -1.667525 -1.388524 2.621898 -1.321076 1.428229 -57.281269 7.444656 -30.340612 3.128090 -62.595159 4.887280 0.000000 0.000000 0.000000 0.668319 0.349715 2.770366 3.715699 8.645723 8.921059 -1.556024 -1.521102 -1.909103 2.698795 1.015940 62.771269 13.313802 23.692497 -4.068600 0.000000 0.000000 0.000000 
3.258316 117.468674 -0.785503 0.000000 0.000000 0.000000 4.846539 -26.672162 1.964845 -19.983407 15.392074 12.029577 17.667126 11.534446 -1.012193 -1.814525 -8.736136 -4.319748 2.290120 0.271560 -0.791506 0.000000 0.000000 0.000000 5.342481 -25.817784 1.975082 -13.588946 -1.911544 -7.602102 14.711778 4.121900 -2.602863 -5.612014 0.585411 11.540922 -6.342924 -0.247717 -1.940540 0.000000 0.000000 0.000000 4.554277 -25.847388 1.194664 6.858691 1.782220 -0.604599 0.480178 0.445002 2.047181 0.564066 -0.754749 1.018634 0.000000 0.000000 0.000000 0.914943 0.969766 2.257637 -3.479952 33.520164 -7.721409 -4.475515 30.558908 -4.306415 0.000000 0.000000 0.000000 1.434888 0.761887 2.229828 0.753266 0.296332 -1.590781 2.769614 -1.804992 1.381447 -56.803278 8.818546 -28.710768 2.848073 -63.803597 4.518838 0.000000 0.000000 0.000000 0.771013 0.815908 2.497183 3.667302 8.796083 9.038720 -1.094227 -1.386972 -1.964941 2.716924 0.419273 62.786336 13.168530 22.702584 -3.978703 0.000000 0.000000 0.000000 
3.562783 116.683243 -0.220585 0.000000 0.000000 0.000000 4.753806 -24.971600 1.992210 -21.164270 15.664296 11.684624 19.932485 11.718056 -1.304905 -1.803202 -9.359571 -3.646098 1.886443 0.293386 -0.640293 0.000000 0.000000 0.000000 5.146554 -24.143284 1.873307 -15.285135 -2.474553 -7.747327 18.951960 3.057611 -2.886831 -6.085730 -0.357584 11.196896 -7.831509 -0.322661 -1.303048 0.000000 0.000000 0.000000 4.566743 -24.218350 1.311067 6.679636 2.057115 -0.329651 0.492911 0.911677 1.870377 0.580124 -0.582319 0.977679 0.000000 0.000000 0.000000 0.945775 1.451285 2.014479 -2.877185 35.866881 -8.625475 -4.388429 33.316071 -5.205615 0.000000 0.000000 0.000000 1.442755 1.282691 2.016401 0.761070 2.266156 -1.994802 2.882104 -2.225348 1.347896 -56.592670 10.058485 -26.987162 2.805140 -65.375518 4.375474 0.000000 0.000000 0.000000 0.852274 1.282592 2.198559 3.635828 8.883679 9.049108 -0.557357 -1.459644 -1.978163 2.592645 -0.202027 62.941382 12.935200 21.594152 -3.943063 0.000000 0.000000 0.000000 
3.886593 115.616852 0.297337 0.000000 0.000000 0.000000 4.447944 -22.815987 2.175405 -22.600992 16.028121 11.162549 22.696278 11.833535 -1.714725 -1.855520 -9.951227 -2.982792 1.394605 0.297270 -0.406921 0.000000 0.000000 0.000000 4.770264 -22.247497 1.968731 -17.870790 -3.031555 -8.279958 24.975364 2.061696 -3.101601 -5.381735 -1.546006 9.974877 -10.174244 -0.592280 0.014426 0.000000 0.000000 0.000000 4.431629 -22.103273 1.542756 6.693326 2.304769 -0.182446 0.535187 1.362952 1.727710 0.520485 -0.470068 0.865367 0.000000 0.000000 0.000000 1.038797 1.909723 1.804144 -2.171398 37.886059 -9.620115 -4.309790 35.532823 -6.071490 0.000000 0.000000 0.000000 1.429213 1.789342 1.848986 0.784105 4.272038 -2.562114 2.982889 -2.503414 1.365547 -56.643613 11.372419 -25.055919 2.859308 -67.266872 4.320676 0.000000 0.000000 0.000000 0.934853 1.717850 1.936466 3.648476 8.913594 8.943378 -0.127242 -1.491320 -1.912815 2.472810 -0.657794 63.147025 12.661175 20.767742 -4.005881 0.000000 0.000000 0.000000 
4.173038 114.369820 0.794800 0.000000 0.000000 0.000000 3.955575 -20.150574 2.467180 -24.147917 16.267718 10.394967 25.610529 11.715529 -2.160709 -2.012498 -10.485897 -2.485869 1.008105 0.292402 -0.129819 0.000000 0.000000 0.000000 4.248863 -19.987176 2.232025 -21.139246 -3.353147 -9.181443 32.048962 1.548390 -3.348118 -3.603571 -2.753790 8.578086 -13.240550 -1.125051 1.798197 0.000000 0.000000 0.000000 4.159244 -19.512119 1.843080 6.891355 2.479168 -0.265095 0.613071 1.757132 1.649426 0.537225 -0.480423 0.812115 0.000000 0.000000 0.000000 1.142678 2.303888 1.676627 -1.523183 39.427800 -10.531145 -4.186830 37.080407 -6.879914 0.000000 0.000000 0.000000 1.426173 2.220002 1.750374 0.832514 6.309417 -3.240608 2.914919 -2.638466 1.267741 -56.899260 12.933200 -22.888857 2.783137 -69.363453 4.144873 0.000000 0.000000 0.000000 1.041515 2.102088 1.753754 3.717800 8.913524 8.766175 0.184843 -1.358528 -1.701606 2.492235 -0.750439 63.352702 12.360096 20.337163 -4.144368 0.000000 0.000000 0.000000 
